<svg xmlns="http://www.w3.org/2000/svg" xmlns:xlink="http://www.w3.org/1999/xlink" version="1.1" x="0px" y="0px" width="100px" height="100px" viewBox="0 0 100 100" enable-background="new 0 0 100 100" xml:space="preserve">
<g id="Captions">
	<rect x="-192" width="185" height="99"/>
	<rect y="-36" width="100" height="30"/>
	<text transform="matrix(1 0 0 1 66 -19.5)" fill="#000000" font-family="'Helvetica'" font-size="2.4">http://thenounproject.com</text>
	<text transform="matrix(1 0 0 1 7.166 -24.5)"><tspan x="0" y="0" fill="#000000" font-family="'Helvetica-Bold'" font-size="6.1578">The Noun Project</tspan><tspan x="1.12" y="4.8" fill="#000000" font-family="'Helvetica-Bold'" font-size="4">Icon Template</tspan></text>
	<text transform="matrix(1 0 0 1 -178.5 10.5)" fill="#000000" font-family="'Helvetica-Bold'" font-size="6.1578">Reminders</text>
	<line fill="#000000" stroke="#FFFFFF" stroke-miterlimit="10" x1="8" y1="-14.5" x2="18" y2="-14.5"/>
	<line fill="#000000" stroke="#FFFFFF" stroke-miterlimit="10" x1="-179" y1="16.5" x2="-162" y2="16.5"/>
	<g>
		<g>
			<g>
				<rect x="-170.802" y="31.318" fill="#000000" width="8.721" height="8.642"/>
				<path fill="#000000" d="M-164.455,42.312h4.747v-4.703h-4.747V42.312z M-159.266,42.749h-5.63V37.17h5.63V42.749      L-159.266,42.749z M-166.221,44.062h8.279v-8.203h-8.279V44.062L-166.221,44.062z M-157.5,44.5h-9.163v-9.079h9.163V44.5      L-157.5,44.5z"/>
				<polygon fill="#000000" points="-166.149,44.133 -166.292,43.991 -158.013,35.787 -157.871,35.929     "/>
			</g>
		</g>
	</g>
	<rect x="-179" y="58" fill="none" width="35" height="32.5"/>
	<text transform="matrix(1 0 0 1 -179 60.1299)"><tspan x="0" y="0" fill="#000000" font-family="'Helvetica-Bold'" font-size="3">Strokes</tspan><tspan x="0" y="5" fill="#000000" font-family="'Helvetica'" font-size="2.4">Try to keep strokes at 4px</tspan><tspan x="0" y="10" fill="#000000" font-family="'Helvetica'" font-size="2.4">Minimum stroke weight is 2px</tspan><tspan x="0" y="14.5" fill="#000000" font-family="'Helvetica'" font-size="2.4">For thicker strokes use even </tspan><tspan x="0" y="17.5" fill="#000000" font-family="'Helvetica'" font-size="2.4">numbers: 6px, 8px etc.</tspan><tspan x="0" y="22" fill="#000000" font-family="'Helvetica-Bold'" font-size="2.4">Remember to expand strokes </tspan><tspan x="0" y="25" fill="#000000" font-family="'Helvetica-Bold'" font-size="2.4">before saving as an SVG </tspan></text>
	<rect x="-136.5" y="58" fill="none" width="35" height="32.5"/>
	<text transform="matrix(1 0 0 1 -136.5 60.1299)"><tspan x="0" y="0" fill="#000000" font-family="'Helvetica-Bold'" font-size="3">Size</tspan><tspan x="0" y="5" fill="#000000" font-family="'Helvetica'" font-size="2.4">Cannot be wider or taller than </tspan><tspan x="0" y="8.5" fill="#000000" font-family="'Helvetica'" font-size="2.4">100px (artboard size)</tspan><tspan x="0" y="13.5" fill="#000000" font-family="'Helvetica'" font-size="2.4">Scale your icon to fill as much of </tspan><tspan x="0" y="16.5" fill="#000000" font-family="'Helvetica'" font-size="2.4">the artboard as possible</tspan></text>
	<rect x="-94" y="58" fill="none" width="35" height="32.5"/>
	<text transform="matrix(1 0 0 1 -94 60.1299)"><tspan x="0" y="0" fill="#000000" font-family="'Helvetica-Bold'" font-size="3">Ungroup</tspan><tspan x="0" y="5" fill="#000000" font-family="'Helvetica'" font-size="2.4">If your design has more than one </tspan><tspan x="0" y="8" fill="#000000" font-family="'Helvetica'" font-size="2.4">shape, make sure to ungroup</tspan></text>
	<rect x="-50" y="58" fill="none" width="35" height="32.5"/>
	<text transform="matrix(1 0 0 1 -50 60.1299)"><tspan x="0" y="0" fill="#000000" font-family="'Helvetica-Bold'" font-size="3">Save as</tspan><tspan x="0" y="5" fill="#000000" font-family="'Helvetica'" font-size="2.4">Save as .SVG and make sure &#8220;Use </tspan><tspan x="0" y="8" fill="#000000" font-family="'Helvetica'" font-size="2.4">Artboards&#8221; is checked</tspan></text>
	<text transform="matrix(1.0074 0 0 1 -125.542 30.5933)" fill="#000000" font-family="'Helvetica'" font-size="2.5731">100px</text>
	<text transform="matrix(1.0074 0 0 1 -41 39)" fill="#000000" font-family="'Helvetica-Bold'" font-size="5.1462">.SVG</text>
	<rect x="-126.514" y="34.815" fill="#000000" width="10.261" height="10.185"/>
	<rect x="-126.477" y="31.766" fill="#000000" width="0.522" height="2.337"/>
	<rect x="-116.813" y="31.766" fill="#000000" width="0.523" height="2.337"/>
	<rect x="-127" y="32.337" fill="#000000" width="11.233" height="0.572"/>
	<g>
		<rect x="-83.805" y="33.844" fill="#000000" width="10.305" height="10.156"/>
		<rect x="-76.809" y="28.707" fill="#000000" width="3.308" height="3.261"/>
	</g>
	<rect x="-178.5" y="22.5" fill="#000000" stroke="#FFFFFF" stroke-miterlimit="10" width="30" height="30"/>
	<rect x="-136.5" y="22.5" fill="#000000" stroke="#FFFFFF" stroke-miterlimit="10" width="30" height="30"/>
	<rect x="-93.5" y="22.5" fill="#000000" stroke="#FFFFFF" stroke-miterlimit="10" width="30" height="30"/>
	<rect x="-49.5" y="22.5" fill="#000000" stroke="#FFFFFF" stroke-miterlimit="10" width="30" height="30"/>
</g>
<g id="Your_Icon">
	
		<circle fill="none" stroke="#000000" stroke-width="0.6946" stroke-linecap="round" stroke-linejoin="round" stroke-miterlimit="10" cx="29.165" cy="54.297" r="1.042"/>
	
		<circle fill="none" stroke="#000000" stroke-width="0.6946" stroke-linecap="round" stroke-linejoin="round" stroke-miterlimit="10" cx="29.165" cy="57.687" r="1.042"/>
	
		<circle fill="none" stroke="#000000" stroke-width="0.6946" stroke-linecap="round" stroke-linejoin="round" stroke-miterlimit="10" cx="42.07" cy="70.883" r="1.042"/>
	
		<circle fill="none" stroke="#000000" stroke-width="0.6946" stroke-linecap="round" stroke-linejoin="round" stroke-miterlimit="10" cx="42.07" cy="74.273" r="1.042"/>
	
		<circle fill="none" stroke="#000000" stroke-width="0.6946" stroke-linecap="round" stroke-linejoin="round" stroke-miterlimit="10" cx="29.487" cy="83.774" r="1.042"/>
	
		<circle fill="none" stroke="#000000" stroke-width="0.6946" stroke-linecap="round" stroke-linejoin="round" stroke-miterlimit="10" cx="29.487" cy="87.165" r="1.042"/>
	<path d="M83.582,56.306c-0.188-0.131-0.43-0.158-0.645-0.075l-0.488,0.19V44.64c0-0.072-0.014-0.143-0.035-0.21   c0.021-0.105,0.035-0.209,0.035-0.313c0-3.905-16.086-7.884-31.875-7.884c-15.69,0-31.678,3.979-31.678,7.884   c0,0.059,0.012,0.121,0.02,0.182c-0.01,0.048-0.02,0.095-0.02,0.145v12.993c0,0.018,0.01,0.032,0.012,0.051   c0.004,0.063,0.021,0.123,0.042,0.184c0.013,0.033,0.02,0.064,0.037,0.095c0.033,0.062,0.08,0.112,0.132,0.161   c0.017,0.019,0.026,0.043,0.045,0.058l1.307,1.015v13.345l-0.747-0.146c-0.021-0.004-0.041,0.004-0.063,0.002   c-0.071-0.007-0.143-0.01-0.214,0.005c-0.038,0.008-0.071,0.027-0.107,0.042c-0.054,0.021-0.104,0.043-0.15,0.076   c-0.012,0.01-0.028,0.011-0.039,0.021c-0.022,0.018-0.032,0.046-0.053,0.067c-0.023,0.025-0.055,0.041-0.074,0.071   c-0.013,0.018-0.015,0.037-0.025,0.057c-0.021,0.037-0.035,0.074-0.05,0.115c-0.02,0.054-0.032,0.107-0.037,0.163   c-0.002,0.021-0.014,0.04-0.014,0.063v13.581c0,0.183,0.071,0.356,0.197,0.486C19.495,87.357,29.163,97,51.426,97   c22.289,0,30.518-9.29,30.855-9.686c0.107-0.126,0.168-0.285,0.168-0.452V73.694l1.07-0.577c0.225-0.121,0.365-0.355,0.365-0.61   V56.879C83.885,56.649,83.771,56.436,83.582,56.306z M50.575,37.622c17.613,0,30.486,4.559,30.486,6.495   c0,0.011-0.004,0.105-0.133,0.31c-1.766,2.806-14.631,7.957-30.353,7.957c-16.58,0-29.313-5.718-30.248-8.132   c0-0.001-0.001-0.001-0.001-0.001c-0.035-0.095-0.039-0.133-0.039-0.134C20.287,42.181,33.076,37.622,50.575,37.622z    M21.813,73.396c0.021-0.068,0.047-0.135,0.047-0.208V59.573c3.037,1.594,8.615,4.013,16.484,5.384v14.011   C30.169,77.488,24.516,74.868,21.813,73.396z M33.309,62.403V51.706c5.039,1.23,11.011,2.068,17.266,2.068   c14.056,0,26.492-4.154,30.486-7.483v10.771c-1.865,1.194-12.635,7.554-30.33,7.554C43.846,64.616,38,63.652,33.309,62.403z    M20.287,57.061V46.299c2.034,1.716,6.216,3.604,11.634,5.054v10.665C25.376,60.11,21.362,57.743,20.287,57.061z M20.287,74.141   c1.789,1.063,5.727,3.134,11.634,4.803v13.605c-7.02-2.448-10.765-5.593-11.634-6.386V74.141z M51.426,95.611   c-7.42,0-13.424-1.123-18.117-2.602v-13.69c4.711,1.213,10.544,2.13,17.422,2.13c16.626,0,27.076-5.085,30.33-6.937v12.073   C79.797,87.868,71.328,95.611,51.426,95.611z M82.496,72.091l-1.07,0.578c-0.014,0.007-0.023,0.019-0.035,0.024   c-0.006,0.006-0.016,0.006-0.023,0.01c-0.109,0.075-11.197,7.357-30.636,7.357c-4.03,0-7.701-0.333-10.997-0.857V65.178   c3.3,0.506,6.962,0.828,10.997,0.828c19.291,0,30.275-7.211,31.351-7.952l0.414-0.16V72.091z"/>
	<path d="M50.786,38.5c-14.148,0-28.563,2.925-28.563,5.796c0,2.67,13.35,7.086,28.563,7.086c14.257,0,28.738-4.123,28.738-7.086   C79.523,41.425,65.02,38.5,50.786,38.5z M33.912,48.443c-0.291-0.906-0.322-1.806-0.092-2.675c0.562-2.119,2.579-3.56,5.077-3.907   c-0.637,0.603-1.493,1.594-2.193,3.058c-0.085,0.177-0.011,0.387,0.165,0.472c0.05,0.023,0.102,0.035,0.153,0.035   c0.132,0,0.259-0.075,0.319-0.201c1.017-2.126,2.407-3.194,2.757-3.438c0.661,0.001,1.343,0.078,2.029,0.232l-1.089,4.116   c-0.051,0.189,0.063,0.382,0.251,0.433c0.03,0.008,0.061,0.012,0.091,0.012c0.156,0,0.299-0.104,0.342-0.263l1.09-4.117   c0.667,0.204,1.297,0.472,1.878,0.801c0.182,0.384,0.863,2.003,0.694,4.354c-0.014,0.195,0.134,0.364,0.328,0.378   c0.008,0.002,0.018,0.002,0.026,0.002c0.183,0,0.338-0.144,0.352-0.329c0.116-1.621-0.139-2.908-0.396-3.747   c0.553,0.426,1.04,0.912,1.444,1.449c1.06,1.405,1.427,2.989,1.036,4.462c-0.058,0.221-0.137,0.437-0.226,0.645   c-5.334-0.19-10.126-0.894-14.037-1.767C33.912,48.445,33.913,48.444,33.912,48.443z M52.93,50.231   c-1.057-1.406-1.424-2.99-1.033-4.463c0.561-2.119,2.578-3.56,5.076-3.907c-0.639,0.603-1.494,1.594-2.195,3.058   c-0.084,0.177-0.01,0.387,0.166,0.472c0.051,0.023,0.102,0.035,0.152,0.035c0.133,0,0.26-0.075,0.32-0.201   c1.018-2.126,2.408-3.194,2.756-3.438c0.662,0.001,1.344,0.078,2.031,0.232l-1.09,4.116c-0.051,0.189,0.063,0.382,0.252,0.433   c0.029,0.008,0.061,0.012,0.09,0.012c0.156,0,0.299-0.104,0.342-0.263l1.09-4.117c0.674,0.205,1.303,0.478,1.881,0.807   c0.186,0.394,0.859,2.007,0.691,4.348c-0.014,0.195,0.135,0.364,0.328,0.378c0.008,0.002,0.018,0.002,0.027,0.002   c0.182,0,0.338-0.144,0.352-0.329c0.115-1.61-0.137-2.891-0.391-3.729c1.719,1.329,2.744,3.189,2.611,5.058   C62.541,49.507,57.959,50.097,52.93,50.231L52.93,50.231z M67.096,48.585c0.08-2.363-1.439-4.685-3.834-6.109   c-0.039-0.033-0.082-0.06-0.131-0.072c-0.73-0.421-1.535-0.762-2.402-0.99c-0.887-0.235-1.77-0.337-2.623-0.332   c-0.035-0.003-0.07-0.004-0.107,0.003c-3.27,0.06-6.066,1.789-6.787,4.503c-0.409,1.546-0.092,3.184,0.879,4.664   c-0.432,0.008-0.865,0.012-1.304,0.012c-0.708,0-1.404-0.013-2.096-0.03c0.06-0.159,0.126-0.318,0.169-0.482   c0.447-1.688,0.037-3.487-1.153-5.067c-0.663-0.88-1.527-1.626-2.525-2.215c-0.008-0.006-0.02-0.009-0.027-0.016   c-0.764-0.445-1.602-0.803-2.499-1.039c-0.888-0.235-1.77-0.337-2.624-0.332c-0.034-0.003-0.069-0.004-0.105,0.003   c-3.271,0.06-6.068,1.789-6.788,4.503c-0.229,0.864-0.217,1.784,0.006,2.685c-5.953-1.403-9.67-3.169-9.801-3.965   c0.297-1.353,11.557-4.688,27.444-4.688c15.951,0,27.302,3.336,27.619,4.669C78.252,45.156,73.912,47.141,67.096,48.585z"/>
	<path d="M73.596,3.336c-1.111-2.66-14.617-0.197-28.035,4.879c-0.277-0.275-0.597-0.521-0.967-0.702   c-0.897-0.44-1.895-0.437-2.964,0.01c-1.153,0.482-1.899,1.229-2.218,2.219c-0.114,0.354-0.161,0.716-0.165,1.066   c-13.659,6.064-25.332,14.154-24.167,16.945c0.049,0.119,0.137,0.228,0.241,0.332c-0.016,0.105-0.013,0.216,0.032,0.321   l2.614,6.264c0.091,0.22,0.3,0.368,0.537,0.381c0.149,0.009,15.105,0.75,31.922-6.268c16.825-7.021,25.872-17.788,25.961-17.896   c0.146-0.178,0.182-0.422,0.094-0.636l-2.615-6.264c-0.045-0.106-0.121-0.185-0.207-0.249C73.66,3.592,73.645,3.454,73.596,3.336z    M55.861,9.146c1.57,0.733,3.098,1.513,4.555,2.327c-1.352,0.252-2.703,0.537-4.035,0.866l-0.789-3.142   C55.682,9.182,55.771,9.163,55.861,9.146z M61.848,8.264c1.354,0.771,2.674,1.577,3.939,2.411c-1.451,0.16-2.799,0.345-4.094,0.562   l-0.502-2.902C61.414,8.308,61.633,8.285,61.848,8.264z M67.998,7.922c0.205,0.14,0.412,0.279,0.615,0.421   c-0.391,0.378-0.826,0.77-1.287,1.17c-0.096,0.081-0.203,0.164-0.303,0.245l-0.178-1.82C67.271,7.928,67.656,7.923,67.998,7.922z    M63.441,12.459c-0.346-0.214-0.697-0.423-1.047-0.634c0.771-0.121,1.563-0.231,2.387-0.333   C64.35,11.811,63.902,12.133,63.441,12.459z M60.291,14.569c-1.047-0.6-2.104-1.16-3.156-1.69c1.324-0.314,2.66-0.598,3.996-0.837   l0.307,1.783C61.063,14.072,60.684,14.32,60.291,14.569z M59.416,15.115c-0.662,0.396-1.34,0.791-2.041,1.182L56.65,13.41   c0.988,0.495,1.979,1.021,2.967,1.58C59.551,15.031,59.482,15.073,59.416,15.115z M24.956,24.352l1.997,2.424   c-1.629,0.011-3.294,0.086-4.975,0.222C22.738,26.282,23.738,25.377,24.956,24.352z M29.452,20.829l1.836,2.604   c-1.63-0.115-3.313-0.167-5.024-0.16C27.226,22.495,28.292,21.673,29.452,20.829z M34.178,17.649l1.667,2.783   c-1.65-0.243-3.348-0.425-5.064-0.549C31.847,19.142,32.981,18.392,34.178,17.649z M39.127,14.853l1.474,2.937   c-1.668-0.377-3.374-0.692-5.092-0.945C36.666,16.161,37.874,15.492,39.127,14.853z M47.676,20.695l0.109,0.268   c-1.1,0.471-2.229,0.932-3.308,1.353c-0.076-0.023-0.153-0.045-0.23-0.067C45.375,21.701,46.518,21.179,47.676,20.695z    M43.429,21.871l-1.537-3.062c1.694,0.424,3.371,0.915,5.005,1.466C45.726,20.778,44.566,21.308,43.429,21.871z M42.257,18.186   c1.213-0.592,2.446-1.155,3.692-1.675l1.3,3.15C45.62,19.108,43.948,18.614,42.257,18.186z M41.398,17.827l-1.551-3.088   c1.788,0.389,3.556,0.848,5.284,1.37C43.872,16.649,42.622,17.219,41.398,17.827z M31.914,24.319l1.175,1.664   c-1.314,0.325-2.603,0.609-3.827,0.837L28.732,26.8c-0.027-0.001-0.058,0-0.086-0.002C29.711,25.942,30.803,25.11,31.914,24.319z    M27.735,26.635l-2.194-2.665c1.869-0.026,3.705,0.021,5.482,0.142C29.906,24.921,28.803,25.762,27.735,26.635z M30.09,20.53   c1.844,0.114,3.667,0.303,5.442,0.56c-1.17,0.722-2.326,1.475-3.452,2.261L30.09,20.53z M32.986,23.574   c1.12-0.767,2.262-1.51,3.417-2.21l1.756,2.928C36.446,23.983,34.713,23.744,32.986,23.574z M37.234,24.834   c-1.164,0.354-2.311,0.684-3.422,0.972l-1.099-1.56C34.219,24.389,35.734,24.583,37.234,24.834z M34.866,17.447   c1.814,0.255,3.616,0.579,5.378,0.973c-1.218,0.631-2.424,1.294-3.601,1.992L34.866,17.447z M37.528,20.704   c1.169-0.68,2.358-1.333,3.562-1.945l1.53,3.046C40.952,21.373,39.247,21.005,37.528,20.704z M42.313,22.443   c-1.108,0.575-2.227,1.188-3.344,1.851l-1.762-2.94C38.93,21.65,40.64,22.014,42.313,22.443z M43.121,22.803l0.013,0.026   c-0.068,0.024-0.136,0.049-0.205,0.075C42.993,22.871,43.057,22.835,43.121,22.803z M49.984,14.238   c-1.25,0.432-2.477,0.885-3.657,1.365l-1.317-3.192c1.746,0.519,3.471,1.104,5.146,1.751l-0.196,0.065L49.984,14.238z    M50.95,14.634l0.015,0.008l1.061,3.226c-1.584-0.671-3.213-1.288-4.869-1.842C48.387,15.537,49.652,15.068,50.95,14.634z    M51.609,18.447l-0.064,0.021l0.018,0.01c-1.2,0.413-2.375,0.849-3.509,1.31l-1.307-3.168C48.4,17.168,50.03,17.779,51.609,18.447z    M52.02,19.055c-0.914,0.436-1.86,0.871-2.83,1.3c-0.117-0.043-0.234-0.086-0.352-0.129C49.875,19.815,50.934,19.423,52.02,19.055z    M51.406,13.758l-1.013-3.091c1.619,0.616,3.203,1.287,4.73,2.001C53.896,12.993,52.654,13.354,51.406,13.758z M55.877,13.183   l0.832,3.314c-1.539-0.785-3.131-1.515-4.746-2.185C53.277,13.894,54.59,13.513,55.877,13.183z M56.125,16.985   c-0.125,0.066-0.246,0.133-0.373,0.2c-1.072,0.294-2.035,0.579-2.936,0.868l-1-3.049C53.281,15.615,54.723,16.278,56.125,16.985z    M62.068,13.403l-0.186-1.075c0.314,0.187,0.627,0.375,0.936,0.566C62.574,13.063,62.322,13.233,62.068,13.403z M66.15,7.959   l0.221,2.267c-1.076-0.717-2.199-1.404-3.346-2.074C64.193,8.052,65.244,7.992,66.15,7.959z M60.502,8.415l0.443,2.559   c-1.26-0.709-2.574-1.39-3.922-2.041C58.242,8.72,59.408,8.549,60.502,8.415z M54.91,9.335l0.701,2.794   c-1.436-0.677-2.926-1.311-4.445-1.902C52.449,9.881,53.701,9.587,54.91,9.335z M49.657,10.65l0.966,2.948   c-1.574-0.613-3.191-1.169-4.829-1.672C47.099,11.447,48.39,11.023,49.657,10.65z M45.535,15.507   c-1.647-0.505-3.338-0.947-5.043-1.332c0.957-0.46,1.936-0.904,2.939-1.323c0.288-0.12,0.576-0.235,0.864-0.351L45.535,15.507z    M40.596,10.116c0.207-0.636,0.7-1.108,1.512-1.447c0.734-0.307,1.366-0.32,1.935-0.044c0.064,0.03,0.124,0.067,0.185,0.104   c-0.813,0.318-1.624,0.645-2.43,0.981c-0.412,0.171-0.822,0.346-1.231,0.522C40.578,10.192,40.584,10.154,40.596,10.116z    M40.57,11.583c0.563-0.244,1.128-0.487,1.705-0.728c0.979-0.409,1.946-0.798,2.9-1.169c0.227,0.339,0.392,0.685,0.506,0.96   c-0.903,0.327-1.813,0.678-2.728,1.061c-0.692,0.288-1.371,0.591-2.042,0.9C40.791,12.338,40.656,11.979,40.57,11.583z    M39.417,12.09c0.105,0.41,0.246,0.769,0.373,1.049C27.658,19.026,19.458,27.73,19.369,27.825   c-0.029,0.032-0.043,0.072-0.065,0.108c-1.76-0.046-2.848-0.289-3.073-0.648C15.979,25.882,24.879,18.583,39.417,12.09z    M75.189,10.375c-1.529,1.722-10.207,10.989-25.241,17.263c-15.049,6.28-28.563,6.25-30.988,6.188l-2.104-5.039   c4.663,1.099,17.507-0.651,30.387-6.025c12.965-5.41,23.323-13.348,25.834-17.441L75.189,10.375z M70.297,6.849h-0.01   c-0.092-0.066-0.197-0.119-0.316-0.127s-10.807-0.657-23.117,3.514c-0.115-0.283-0.276-0.635-0.497-1   c14.329-5.404,25.28-6.539,26.09-5.432C72.545,4.252,71.791,5.354,70.297,6.849z"/>
</g>
</svg>