<svg xmlns="http://www.w3.org/2000/svg" xmlns:xlink="http://www.w3.org/1999/xlink" version="1.1" id="Layer_1" x="0px" y="0px" width="100px" height="100px" viewBox="0 0 100 100" enable-background="new 0 0 100 100" xml:space="preserve">
<path d="M37.801,40.405c0.163,0.185,0.346,0.35,0.517,0.529c0.104,0.106,0.206,0.212,0.31,0.314c0.27,0.265,0.548,0.513,0.835,0.76  c0.127,0.108,0.258,0.216,0.385,0.322c0.285,0.224,0.575,0.438,0.867,0.646c0.154,0.104,0.309,0.209,0.467,0.309  c0.287,0.189,0.582,0.374,0.882,0.539c0.181,0.102,0.366,0.192,0.545,0.286c0.299,0.154,0.599,0.304,0.906,0.437  c0.203,0.089,0.412,0.164,0.619,0.245c0.304,0.118,0.6,0.236,0.908,0.332c0.235,0.077,0.478,0.138,0.721,0.201  c0.289,0.081,0.583,0.165,0.879,0.227c0.285,0.062,0.586,0.101,0.875,0.146c0.266,0.039,0.524,0.093,0.79,0.119  c0.501,0.052,1.01,0.077,1.527,0.081c0.066,0.002,0.124,0.012,0.188,0.012l0,0c0.004,0,0.008,0,0.012,0  c0.065,0,0.124-0.01,0.185-0.012c0.517-0.004,1.025-0.029,1.526-0.081c0.27-0.026,0.524-0.081,0.79-0.119  c0.289-0.046,0.59-0.084,0.875-0.146c0.301-0.062,0.59-0.146,0.883-0.227c0.243-0.063,0.479-0.124,0.713-0.201  c0.312-0.096,0.613-0.213,0.91-0.332c0.212-0.081,0.42-0.155,0.62-0.245c0.309-0.134,0.609-0.283,0.906-0.437  c0.185-0.093,0.366-0.184,0.544-0.286c0.304-0.165,0.593-0.35,0.886-0.539c0.154-0.1,0.312-0.205,0.467-0.309  c0.297-0.207,0.586-0.422,0.867-0.647c0.127-0.104,0.258-0.212,0.382-0.32c0.288-0.247,0.57-0.495,0.836-0.76  c0.104-0.102,0.204-0.208,0.309-0.314c0.174-0.179,0.354-0.344,0.521-0.529c1.464-1.654,8.291,1.438,7.806-3.952  C68.428,18.518,59.05,13.27,50.034,13.27c-0.003,0-0.008,0.002-0.012,0.002V13.27c-9.015,0-18.4,5.248-20.027,23.183  C29.505,41.842,36.334,38.751,37.801,40.405z"/>
<path d="M63.895,44.601c-3.342,4.02-8.372,6.572-14.007,6.572c-5.63,0-10.661-2.552-14.005-6.568  c-5.556,4.99-9.145,7.304-9.145,16.18c0,15.09,2.085,32.896,23.149,32.896c21.065,0,23.151-17.807,23.151-32.896  C73.038,51.909,69.453,49.595,63.895,44.601z M50.084,82.712c-1.823,0-3.308-1.48-3.308-3.308c0-1.826,1.484-3.307,3.308-3.307  c1.826,0,3.308,1.48,3.308,3.307C53.392,81.231,51.91,82.712,50.084,82.712z M50.084,73.037c-1.823,0-3.308-1.482-3.308-3.309  c0-1.825,1.484-3.308,3.308-3.308c1.826,0,3.308,1.482,3.308,3.308C53.392,71.555,51.91,73.037,50.084,73.037z M50.084,63.357  c-1.823,0-3.308-1.481-3.308-3.309c0-1.825,1.484-3.307,3.308-3.307c1.826,0,3.308,1.481,3.308,3.307  C53.392,61.876,51.91,63.357,50.084,63.357z"/>
<path d="M22.739,50.058c-1.96,2.357-4.917,3.857-8.222,3.857c-3.303,0-6.254-1.5-8.216-3.855c-3.257,2.93-5.366,4.285-5.366,9.492  c0,8.855,1.228,19.301,13.582,19.301c4.658,0,7.732-1.487,9.758-3.812c-0.981-4.718-1.199-9.829-1.199-14.662  c0-3.74,0.64-6.309,1.792-8.407C24.23,51.374,23.523,50.761,22.739,50.058z"/>
<circle cx="14.517" cy="41.221" r="9.574"/>
<path d="M94.045,50.06c-1.961,2.355-4.91,3.855-8.218,3.855c-3.307,0-6.259-1.5-8.219-3.857c-0.786,0.703-1.495,1.316-2.134,1.914  c1.155,2.099,1.799,4.667,1.799,8.407c0,4.833-0.22,9.944-1.206,14.662c2.028,2.324,5.104,3.812,9.76,3.812  c12.357,0,13.579-10.445,13.579-19.301C99.406,54.345,97.302,52.989,94.045,50.06z"/>
<circle cx="85.827" cy="41.221" r="9.574"/>
</svg>